<?xml version="1.0" standalone="no"?><!-- Generator: Gravit.io --><svg xmlns="http://www.w3.org/2000/svg" xmlns:xlink="http://www.w3.org/1999/xlink" style="isolation:isolate" viewBox="0 0 1024 1024" width="1024" height="1024"><defs><clipPath id="_clipPath_LsdFgT3u4v6gA5FdWCt4eoCKEBQ31QyV"><rect width="1024" height="1024"/></clipPath></defs><g clip-path="url(#_clipPath_LsdFgT3u4v6gA5FdWCt4eoCKEBQ31QyV)"><g opacity="0.29"><path d=" M 135.507 736.048 C 135.507 736.048 129.347 732.968 129.347 732.968 C 119.342 719.627 112.779 708.168 106.25 692.932 C 105.345 690.822 104.074 688.883 103.17 686.773 C 101.305 682.422 101.63 682.99 101.63 679.074 C 96.894 674.337 97.395 668.677 97.011 666.755 C 94.132 652.361 91.373 638.047 87.771 623.639 C 80.408 594.185 64.674 570.71 64.674 546.647 C 64.674 530.788 61.594 517.485 61.594 501.991 C 61.594 485.661 64.674 473.144 64.674 460.415 C 64.674 440.093 74.546 418.48 80.072 401.901 C 88.504 376.605 100.916 357.022 106.25 335.687 C 107.359 331.251 119.155 331.434 121.648 326.448 C 126.771 316.202 119.608 303.813 121.648 295.651 C 123.24 289.283 138.156 279.143 141.666 275.633 C 143.54 273.759 141.234 267.042 141.666 266.394 C 147.836 257.14 145.88 250.51 152.445 241.756 C 153.699 240.085 158.813 235.597 160.144 235.597 C 162.976 235.597 166.602 230.265 167.844 229.438 C 174.5 225 178.066 220.056 184.782 215.579 C 186.086 214.71 192.202 211.239 192.481 210.959 C 203.444 199.996 211.595 189.58 218.659 180.162 C 218.659 180.162 224.818 174.003 224.818 174.003 C 224.818 169.864 229.54 166.202 230.977 164.764 C 233.011 162.731 235.412 159.651 237.137 157.065 C 243.017 148.244 249.264 146.477 254.075 141.666 C 260.628 135.114 274.512 126.268 280.253 126.268 C 284.931 126.268 285.964 121.648 289.492 121.648 C 291.262 121.648 301.022 118.606 301.811 117.029 C 302.619 115.412 308.466 113.949 311.05 113.949 C 326.884 113.949 339.305 97.011 354.165 97.011 C 364.916 97.011 375.642 86.232 384.962 86.232 C 387.959 86.232 391.937 83.152 394.202 83.152 C 397.653 83.152 403.511 80.072 406.52 80.072 C 408.35 80.072 414.015 78.155 415.759 76.992 C 415.759 76.992 434.238 73.913 434.238 73.913 C 434.238 72.373 452.716 69.293 452.716 69.293 C 454.48 69.293 459.02 69.991 460.415 69.293 C 461.977 68.512 464.507 67.753 468.114 67.753 C 471.194 67.753 474.274 67.753 477.353 67.753 C 498.228 67.753 520.947 64.833 538.947 70.833 C 546.47 73.341 550.104 73.012 552.806 73.913 C 566.763 78.565 583.253 76.52 597.462 80.072 C 599.902 80.682 604.179 80.072 606.701 80.072 C 611.9 80.072 620.997 83.298 625.179 84.692 C 630.319 86.405 633.592 85.956 639.038 87.771 C 639.84 88.039 648.261 89.296 648.277 89.311 C 649.817 90.851 657.516 90.851 657.516 90.851 C 661.985 92.639 667.11 96.418 671.374 98.55 C 672.024 98.875 672.401 99.577 672.914 100.09 C 675.345 102.521 677.579 101.147 680.614 103.17 C 683.545 105.124 685.033 105.603 688.313 107.789 C 688.965 108.224 695.229 110.869 696.012 110.869 C 703.441 110.869 709.355 118.311 712.95 120.108 C 720.771 124.019 728.764 126.434 736.048 129.347 C 737.357 129.871 741.428 134.347 743.747 135.507 C 744.891 136.078 750.968 139.409 751.447 140.126 C 754.526 144.746 762.226 150.905 762.226 150.905 C 778.783 161.944 794.364 172.265 808.421 186.322 C 812.181 190.082 813.13 194.066 816.12 195.561 C 825.204 200.103 832.013 214.286 840.758 218.659 C 856.801 226.68 861.272 248.412 871.555 258.695 C 878.849 265.989 872.289 259.228 879.254 267.934 C 885.056 275.186 890.367 280.92 894.653 289.492 C 895.878 291.943 898.156 293.42 899.272 295.651 C 900.413 297.932 903.892 301.209 903.892 303.35 C 903.892 319.04 917.75 333.1 917.75 346.466 C 917.75 355.238 927.2 367.117 930.069 375.723 C 931.116 378.863 933.149 381.532 933.149 384.962 C 933.149 385.989 933.149 387.016 933.149 388.042 C 933.149 403.777 937.768 414.963 937.768 429.618 C 937.768 438.097 945.468 445.284 945.468 454.256 C 945.468 457.081 947.008 459.968 947.008 463.495 C 947.008 475.5 953.167 489.097 953.167 497.371 C 953.167 504.742 955.699 516.944 953.167 522.009 C 953.167 522.009 951.627 531.248 951.627 531.248 C 950.087 531.248 948.547 540.487 948.547 540.487 C 947.496 543.642 945.854 546.26 943.928 548.186 C 939.985 552.129 943.474 564.039 939.308 568.205 C 935.019 572.494 936.229 589.47 936.229 594.382 C 936.229 599.437 934.689 598.647 934.689 603.621 C 934.689 606.939 932.93 610.218 931.609 612.86 C 929.801 616.476 928.529 623.044 928.529 623.639 C 928.529 634.331 923.985 640.352 920.83 649.817 C 919.997 652.317 917.75 656.776 917.75 659.056 C 917.75 665.898 910.57 683.175 910.051 683.693 C 907.972 685.773 909.251 690.652 906.971 692.932 C 904.956 694.947 903.892 699.296 903.892 702.171 C 903.892 711.836 893.198 723.644 888.493 728.349 C 879.235 737.607 875.633 748.909 866.935 757.606 C 854.165 770.376 852.408 751.781 840.758 757.606 C 836.283 759.844 826.726 757.606 825.359 757.606 C 803.706 757.606 810.194 757.606 788 757.606 C 759.14 757.606 759.434 757.606 736.048 757.606 C 727.125 757.606 677.076 755.192 674.454 756.066 C 662.485 760.056 637.65 757.606 625.179 757.606 C 599.543 757.606 594.289 757.606 578.139 757.606 C 555.041 757.606 533.346 757.606 519.487 757.606 C 497.137 757.606 468.456 760.754 452.716 757.606 C 449.654 756.994 437.36 757.606 434.238 757.606 C 402.041 757.606 410.044 757.606 384.962 757.606 C 362.91 757.606 338.745 757.606 323.027 757.606 C 295.15 757.606 278.956 756.066 254.075 756.066 C 247.916 756.066 230.977 756.066 230.977 756.066 C 226.32 754.902 215.601 752.375 210.959 751.447 C 201.7 749.595 201.585 753.723 192.481 751.447 C 191.024 751.082 169.208 758.516 167.844 757.606 C 162.047 753.741 160.112 751.824 158.605 751.447 C 152.688 749.968 147.712 758.081 141.666 756.066 C 138.247 754.926 136.182 751.447 133.967 751.447 C 130.501 751.447 130.887 744.635 130.887 742.208 C 130.887 737.389 135.507 739.555 135.507 736.048 Z " fill="rgb(0,0,0)"/></g><path d=" M 189.621 363.733 L 381.678 542.319 L 573.735 720.906 C 608.536 753.266 610.509 802.148 578.139 829.996 L 578.139 829.996 L 578.139 829.996 C 545.768 857.845 497.729 848.594 470.929 809.351 L 323.027 592.778 L 175.124 376.205 C 148.324 336.961 154.82 331.373 189.621 363.733 Z " fill="rgb(255,255,255)"/><g id="Gauge Outline"><g opacity="0.58"><path d=" M 149.365 754.526 C 149.365 754.526 158.605 756.066 158.605 756.066 C 169.551 759.715 191.951 757.606 203.26 757.606 C 222.19 757.606 244.152 755.325 260.235 760.686 C 278.799 766.874 302.218 762.226 317.209 762.226 C 320.802 762.226 324.395 762.226 327.988 762.226 C 351.599 762.226 370.59 762.226 389.582 762.226 C 416.273 762.226 439.884 762.226 463.495 762.226 C 488.622 762.226 510.423 757.606 534.328 757.606 C 563.585 757.606 589.762 757.606 615.94 757.606 C 641.359 757.606 661.583 756.066 682.153 756.066 C 701.145 756.066 717.057 756.066 732.968 756.066 C 750.933 756.066 767.358 756.066 783.783 756.066 C 798.781 756.066 806.875 757.606 819.2 757.606 C 833.281 757.606 844.78 759.146 857.696 759.146 C 860.946 759.146 868.926 758.057 870.015 759.146 C 874.97 764.101 866.935 781.249 866.935 785.323 C 866.935 790.768 852.155 813.041 845.377 813.041 C 843.838 813.041 836.138 819.2 836.138 819.2 C 828.936 822.801 820.095 824.464 813.041 831.519 C 800.986 843.574 787.634 849.226 777.624 859.236 C 777.624 859.236 769.925 863.856 769.925 863.856 C 769.925 865.395 763.765 871.555 763.765 871.555 C 754.212 881.108 744.826 893.343 732.968 899.272 C 717.677 906.918 697.724 911.419 688.313 920.83 C 686.296 922.847 678.803 925.132 677.534 925.45 C 668.94 927.598 660.948 930.465 652.896 933.149 C 651.252 933.697 641.543 935.263 640.577 936.229 C 639.038 937.768 629.798 939.308 629.798 939.308 C 620.359 942.455 610 940.775 600.541 943.928 C 598.784 944.514 592.884 945.468 591.302 945.468 C 573.589 945.468 557.362 947.008 540.487 947.008 C 522.009 947.008 505.071 947.008 488.132 947.008 C 459.278 947.008 432.45 948.547 404.98 948.547 C 394.058 948.547 386.104 949.441 378.803 947.008 C 370.191 944.137 359.285 934.689 349.546 934.689 C 345.19 934.689 340.156 930.995 338.767 930.069 C 328.836 923.448 315.229 920.389 307.97 913.131 C 304.266 909.427 300.339 909.383 298.731 906.971 C 295.476 902.089 279.505 885.414 272.553 885.414 C 270.866 885.414 264.637 881.455 263.314 880.794 C 258.445 878.359 259.926 876.072 255.615 874.635 C 255.615 874.635 235.597 860.776 235.597 860.776 C 235.597 857.696 227.898 851.537 227.898 851.537 C 222.454 843.371 209.481 840.881 204.8 831.519 C 203.428 828.775 198.641 827.484 198.641 823.82 C 198.641 821.812 191.591 816.769 190.941 816.12 C 185.492 810.671 166.304 793.473 166.304 785.323 C 166.304 778.245 156.153 763.481 149.365 754.526 Z " fill="rgb(0,0,0)"/></g><line x1="151" y1="758" x2="882" y2="758" vector-effect="non-scaling-stroke" stroke-width="30" stroke="rgb(255,255,255)" stroke-linejoin="miter" stroke-linecap="square" stroke-miterlimit="3"/><path d=" M 71 512 C 71 268.605 268.605 71 512 71 C 755.395 71 953 268.605 953 512 C 953 755.395 755.395 953 512 953 C 268.605 953 71 755.395 71 512 Z " fill="none" vector-effect="non-scaling-stroke" stroke-width="30" stroke="rgb(255,255,255)" stroke-linejoin="miter" stroke-linecap="butt" stroke-miterlimit="3"/></g><g id="TBA Lamp"><g id="Group"><rect x="380.556" y="271" width="28.167" height="300.444" transform="matrix(1,0,0,1,0,0)" fill="rgb(255,255,255)"/></g><g id="Group"><rect x="615.278" y="271" width="28.167" height="300.444" transform="matrix(1,0,0,1,0,0)" fill="rgb(255,255,255)"/></g><g id="Group"><path d=" M 512 702.889 C 439.522 702.889 380.556 643.922 380.556 571.444 L 408.722 571.444 C 408.722 628.393 455.052 674.722 512 674.722 L 512 702.889 Z " fill="rgb(255,255,255)"/></g><g id="Group"><path d=" M 512 702.889 L 512 674.722 C 568.948 674.722 615.278 628.393 615.278 571.444 L 643.444 571.444 C 643.444 643.922 584.478 702.889 512 702.889 Z " fill="rgb(255,255,255)"/></g><g id="Group"><rect x="497.917" y="271" width="28.167" height="417.806" transform="matrix(1,0,0,1,0,0)" fill="rgb(255,255,255)"/></g><g id="Group"><rect x="394.639" y="543.278" width="234.722" height="28.167" transform="matrix(1,0,0,1,0,0)" fill="rgb(255,255,255)"/></g><g id="Group"><rect x="394.639" y="411.833" width="234.722" height="28.167" transform="matrix(1,0,0,1,0,0)" fill="rgb(255,255,255)"/></g><g id="Lamp_Rectangle_4_"><path d=" M 681 289.778 C 681 300.106 672.55 308.556 662.222 308.556 L 361.778 308.556 C 351.45 308.556 343 300.106 343 289.778 L 343 195.889 C 343 185.561 351.45 177.111 361.778 177.111 L 662.222 177.111 C 672.55 177.111 681 185.561 681 195.889 L 681 289.778 Z " fill="rgb(255,255,255)"/></g></g></g></svg>